<svg xmlns="http://www.w3.org/2000/svg" viewBox="0 0 128 128" role="img" aria-label="YotB Quarterly League">
  <defs>
    <linearGradient id="ql-gold" x1="18" y1="8" x2="110" y2="120" gradientUnits="userSpaceOnUse">
      <stop offset="0" stop-color="#fff4bd"/>
      <stop offset=".34" stop-color="#d2a24f"/>
      <stop offset=".72" stop-color="#75501a"/>
      <stop offset="1" stop-color="#f1d17a"/>
    </linearGradient>
    <linearGradient id="ql-gold-soft" x1="28" y1="20" x2="100" y2="108" gradientUnits="userSpaceOnUse">
      <stop offset="0" stop-color="#fff8d8"/>
      <stop offset=".5" stop-color="#c79638"/>
      <stop offset="1" stop-color="#5c3812"/>
    </linearGradient>
    <linearGradient id="ql-burgundy" x1="22" y1="18" x2="106" y2="112" gradientUnits="userSpaceOnUse">
      <stop offset="0" stop-color="#6d1e27"/>
      <stop offset=".52" stop-color="#21070b"/>
      <stop offset="1" stop-color="#080203"/>
    </linearGradient>
    <linearGradient id="ql-banner" x1="15" y1="48" x2="113" y2="84" gradientUnits="userSpaceOnUse">
      <stop offset="0" stop-color="#110806"/>
      <stop offset=".5" stop-color="#5b171d"/>
      <stop offset="1" stop-color="#160806"/>
    </linearGradient>
    <linearGradient id="ql-word" x1="30" y1="48" x2="98" y2="78" gradientUnits="userSpaceOnUse">
      <stop offset="0" stop-color="#fff8d1"/>
      <stop offset=".42" stop-color="#ecc861"/>
      <stop offset="1" stop-color="#a96d22"/>
    </linearGradient>
    <linearGradient id="ql-platinum" x1="28" y1="18" x2="102" y2="110" gradientUnits="userSpaceOnUse">
      <stop offset="0" stop-color="#fffaf0"/>
      <stop offset=".48" stop-color="#c6c1b6"/>
      <stop offset="1" stop-color="#6c675f"/>
    </linearGradient>
    <filter id="ql-shadow" x="-22%" y="-22%" width="144%" height="144%">
      <feDropShadow dx="0" dy="7" stdDeviation="6" flood-color="#000000" flood-opacity=".56"/>
      <feDropShadow dx="0" dy="0" stdDeviation="2" flood-color="#d2a24f" flood-opacity=".3"/>
    </filter>
    <filter id="ql-text-shadow" x="-20%" y="-32%" width="140%" height="164%">
      <feDropShadow dx="0" dy="2" stdDeviation="1.4" flood-color="#000000" flood-opacity=".78"/>
    </filter>
  </defs>

  <g filter="url(#ql-shadow)">
    <path d="M21 26C36 16 92 16 107 26V95C92 106 36 106 21 95Z" fill="#070403" opacity=".96"/>
    <path d="M23 27C38 18 90 18 105 27V94C90 104 38 104 23 94Z" fill="url(#ql-burgundy)" stroke="url(#ql-gold)" stroke-width="4"/>
    <path d="M31 35C44 29 84 29 97 35V87C84 94 44 94 31 87Z" fill="none" stroke="url(#ql-platinum)" stroke-width="1.4" opacity=".64"/>

    <path d="M33 43H95" stroke="url(#ql-gold)" stroke-width="1.5" stroke-linecap="round" opacity=".9"/>
    <path d="M39 100H89" stroke="url(#ql-gold)" stroke-width="2.3" stroke-linecap="round" opacity=".82"/>
    <path d="M47 106H81" stroke="url(#ql-platinum)" stroke-width="1.4" stroke-linecap="round" opacity=".56"/>

    <path d="M16 56C35 47 93 47 112 56V76C93 67 35 67 16 76Z" fill="url(#ql-banner)" stroke="url(#ql-gold)" stroke-width="2.3" stroke-linejoin="round"/>
    <path d="M16 56 27 65 16 76Z" fill="#120706" stroke="url(#ql-gold)" stroke-width="1.4" stroke-linejoin="round"/>
    <path d="M112 56 101 65 112 76Z" fill="#120706" stroke="url(#ql-gold)" stroke-width="1.4" stroke-linejoin="round"/>
    <path d="M24 58C43 52 85 52 104 58" fill="none" stroke="#fff6d0" stroke-width="1" stroke-linecap="round" opacity=".16"/>

    <text x="64" y="74" text-anchor="middle"
          font-family="Georgia, 'Times New Roman', serif"
          font-size="34" font-weight="700" letter-spacing="0"
          fill="url(#ql-word)" stroke="#120904" stroke-width="1.1"
          paint-order="stroke" filter="url(#ql-text-shadow)">YotB</text>

    <text x="64" y="95" text-anchor="middle"
          font-family="Montserrat, Arial, sans-serif"
          font-size="17" font-weight="900" letter-spacing="0"
          fill="url(#ql-word)" stroke="#120904" stroke-width=".7"
          paint-order="stroke" filter="url(#ql-text-shadow)">QL</text>

    <path d="M44 83H84" stroke="url(#ql-gold-soft)" stroke-width="1.8" stroke-linecap="round" opacity=".9"/>
    <path d="M52 88H76" stroke="url(#ql-platinum)" stroke-width="1.1" stroke-linecap="round" opacity=".48"/>
  </g>
</svg>
