<svg xmlns="http://www.w3.org/2000/svg" viewBox="0 0 96 96" role="img" aria-label="Turnir">
  <defs>
    <linearGradient id="cup" x1="17" y1="13" x2="77" y2="83" gradientUnits="userSpaceOnUse"><stop stop-color="#C8A5EA"/><stop offset="1" stop-color="#75439D"/></linearGradient>
    <linearGradient id="light" x1="25" y1="20" x2="67" y2="68" gradientUnits="userSpaceOnUse"><stop stop-color="#FFF7D6"/><stop offset="1" stop-color="#F1C760"/></linearGradient>
    <filter id="shadow" x="-30%" y="-30%" width="170%" height="170%"><feDropShadow dx="2" dy="3" stdDeviation="2.2" flood-color="#51266F" flood-opacity=".38"/></filter>
  </defs>
  <g filter="url(#shadow)">
    <path d="M24 13h48v24c0 19-10 31-24 31S24 56 24 37V13Z" fill="url(#cup)"/>
    <path d="M24 23H12v11c0 14 10 23 24 24M72 23h12v11c0 14-10 23-24 24" fill="none" stroke="url(#cup)" stroke-width="9" stroke-linecap="round" stroke-linejoin="round"/>
    <path d="M48 66v12M33 83h30" stroke="#704093" stroke-width="10" stroke-linecap="round"/>
    <path d="m48 24 6 12 13 2-10 9 3 13-12-6-12 6 3-13-10-9 13-2 6-12Z" fill="url(#light)" stroke="#9C6D25" stroke-width="2.5" stroke-linejoin="round"/>
    <path d="M33 19h28" stroke="#E8D4FA" stroke-width="4" stroke-linecap="round" opacity=".82"/>
  </g>
</svg>
