<svg xmlns="http://www.w3.org/2000/svg" viewBox="0 0 96 96" role="img" aria-label="Riznica">
  <defs>
    <linearGradient id="chest" x1="15" y1="16" x2="76" y2="80" gradientUnits="userSpaceOnUse"><stop stop-color="#FFE58D"/><stop offset="1" stop-color="#D28B26"/></linearGradient>
    <linearGradient id="rim" x1="20" y1="18" x2="72" y2="72" gradientUnits="userSpaceOnUse"><stop stop-color="#FFF2BD"/><stop offset="1" stop-color="#E6B65B"/></linearGradient>
    <linearGradient id="coin" x1="57" y1="57" x2="86" y2="85" gradientUnits="userSpaceOnUse"><stop stop-color="#FFD966"/><stop offset="1" stop-color="#BB6C18"/></linearGradient>
    <filter id="shadow" x="-30%" y="-30%" width="170%" height="170%"><feDropShadow dx="2" dy="3" stdDeviation="2.2" flood-color="#754315" flood-opacity=".38"/></filter>
  </defs>
  <g filter="url(#shadow)">
    <path d="M15 38c0-15 12-27 27-27h13c15 0 27 12 27 27v10H15V38Z" fill="url(#chest)"/>
    <rect x="11" y="42" width="72" height="37" rx="10" fill="url(#chest)"/>
    <path d="M18 42h58M22 18v57M72 20v56" fill="none" stroke="url(#rim)" stroke-width="8" stroke-linecap="round"/>
    <rect x="38" y="39" width="20" height="25" rx="7" fill="#FFF0BA" stroke="#A96520" stroke-width="3"/>
    <circle cx="48" cy="49" r="4" fill="#A96520"/><path d="M48 52v6" stroke="#A96520" stroke-width="4" stroke-linecap="round"/>
    <ellipse cx="72" cy="62" rx="13" ry="6" fill="url(#coin)" stroke="#995416" stroke-width="2"/>
    <path d="M59 62v14c0 4 6 7 13 7s13-3 13-7V62" fill="url(#coin)" stroke="#995416" stroke-width="2"/>
    <path d="M60 69c5 4 19 4 24 0M60 76c5 4 19 4 24 0" fill="none" stroke="#FFE7A0" stroke-width="2.5"/>
    <path d="M22 32c8-11 34-15 48 0" fill="none" stroke="#FFF4C9" stroke-width="4" stroke-linecap="round" opacity=".84"/>
  </g>
</svg>
